<svg id="b72ef238-92e3-4456-acb7-3e8fa0851d4d" data-name="Layer 1" xmlns="http://www.w3.org/2000/svg" viewBox="0 0 179.03 29.7"><defs><style>.b981d256-7376-4b7e-bbee-a358d9ff9bf7{fill:#7d1e78;}.b8ab8769-8767-4af3-9e63-08bc6e678130{fill:#fff;}</style></defs><polygon class="b981d256-7376-4b7e-bbee-a358d9ff9bf7" points="13.27 18.43 13.27 18.43 13.27 18.43 13.27 18.43"/><path class="b8ab8769-8767-4af3-9e63-08bc6e678130" d="M58.41,110.37H57.34a14.93,14.93,0,0,1-1.93-.77c-2.84-1.6-5.66-3.25-8.48-4.88a4.57,4.57,0,0,1-2.45-4.26q0-4.92,0-9.84a4.54,4.54,0,0,1,2.45-4.26c2.09-1.2,4.16-2.44,6.26-3.62,1.48-.83,2.86-1.91,4.64-2.07H58a10.12,10.12,0,0,1,2,.63c3.06,1.72,6.1,3.49,9.14,5.27a4.16,4.16,0,0,1,2,3c0,.21.09.43.13.65v10.68c0,.06-.07.11-.07.17a4.44,4.44,0,0,1-2.45,3.7c-1.45.83-2.86,1.71-4.32,2.49C62.49,108.3,60.68,109.77,58.41,110.37Zm-.56-6.57H60.3a3.79,3.79,0,0,0,3.5-2c.84-1.44,1.67-2.87,2.5-4.32a3.74,3.74,0,0,0,0-3.87c-.85-1.51-1.72-3-2.6-4.49a3.7,3.7,0,0,0-3.36-1.91h-5.1a3.7,3.7,0,0,0-3.35,1.92q-1.3,2.22-2.57,4.45a3.71,3.71,0,0,0,0,3.83q1.27,2.28,2.61,4.53a3.72,3.72,0,0,0,3.29,1.88C56.12,103.81,57,103.8,57.85,103.8Z" transform="translate(-44.48 -80.67)"/><path class="b8ab8769-8767-4af3-9e63-08bc6e678130" d="M62.16,92.11,60.94,93.6c-1.82-1.53-3.54-1.66-4.82-.36a3.22,3.22,0,0,0-.1,4.28c1,1.09,2.89,1.62,4.9-.12l1.24,1.33c-.8,1.34-3.42,2.16-5.31,1.67a5,5,0,0,1-.5-9.66C58.42,90,61.1,90.64,62.16,92.11Z" transform="translate(-44.48 -80.67)"/><polygon class="b981d256-7376-4b7e-bbee-a358d9ff9bf7" points="13.27 16.29 13.27 16.29 13.27 16.29 13.27 16.29"/><path class="b8ab8769-8767-4af3-9e63-08bc6e678130" d="M89,101.13a8.54,8.54,0,0,1-3.56.63,6.23,6.23,0,0,1-4.51-1.6,5.71,5.71,0,0,1-1.64-4.27,6.1,6.1,0,0,1,1.84-4.61,6.7,6.7,0,0,1,4.8-1.76A9.43,9.43,0,0,1,89,90v2.57a5.68,5.68,0,0,0-2.85-.71,3.88,3.88,0,0,0-2.83,1A3.78,3.78,0,0,0,82.2,95.7,3.51,3.51,0,0,0,86,99.46a6.13,6.13,0,0,0,3-.76Z" transform="translate(-44.48 -80.67)"/><path class="b8ab8769-8767-4af3-9e63-08bc6e678130" d="M95.65,101.76a5.92,5.92,0,0,1-4.36-1.66,5.75,5.75,0,0,1-1.69-4.31,6.19,6.19,0,0,1,1.71-4.54,6.08,6.08,0,0,1,4.54-1.73,5.79,5.79,0,0,1,4.31,1.66,5.91,5.91,0,0,1,1.65,4.37,6.08,6.08,0,0,1-1.71,4.5A6,6,0,0,1,95.65,101.76Zm.12-10a2.9,2.9,0,0,0-2.35,1,4.3,4.3,0,0,0-.86,2.79,4.2,4.2,0,0,0,.86,2.78,3.09,3.09,0,0,0,4.58,0,4.09,4.09,0,0,0,.85-2.76A4.48,4.48,0,0,0,98,92.83,2.75,2.75,0,0,0,95.77,91.81Z" transform="translate(-44.48 -80.67)"/><path class="b8ab8769-8767-4af3-9e63-08bc6e678130" d="M113.5,96.43q0,5.32-5.23,5.33-5.07,0-5.07-5.21V89.71H106v6.87c0,1.92.79,2.88,2.36,2.88s2.32-.93,2.32-2.78v-7h2.81Z" transform="translate(-44.48 -80.67)"/><path class="b8ab8769-8767-4af3-9e63-08bc6e678130" d="M126.13,101.55h-3.22l-1.94-3a7.35,7.35,0,0,0-.42-.62,3.92,3.92,0,0,0-.4-.47,1.68,1.68,0,0,0-.43-.3,1.12,1.12,0,0,0-.48-.1h-.76v4.53h-2.8V89.71h4.45c3,0,4.53,1.08,4.53,3.22a3.27,3.27,0,0,1-.2,1.15,3.09,3.09,0,0,1-.56.94,3.68,3.68,0,0,1-.88.73,5,5,0,0,1-1.16.48v0a2,2,0,0,1,.54.27,4,4,0,0,1,.51.43,6.2,6.2,0,0,1,.46.54c.15.18.28.37.41.55Zm-7.65-9.84V95h1.22a2.08,2.08,0,0,0,1.45-.5,1.63,1.63,0,0,0,.56-1.25c0-1-.65-1.55-2-1.55Z" transform="translate(-44.48 -80.67)"/><path class="b8ab8769-8767-4af3-9e63-08bc6e678130" d="M126.19,101.1V98.46a5.38,5.38,0,0,0,1.64.9,5.56,5.56,0,0,0,1.79.3,4.15,4.15,0,0,0,.92-.09,2,2,0,0,0,.66-.25,1.22,1.22,0,0,0,.4-.38.89.89,0,0,0,.13-.48,1,1,0,0,0-.21-.61,2.2,2.2,0,0,0-.57-.51,6.06,6.06,0,0,0-.85-.44c-.33-.15-.69-.29-1.07-.44a5.56,5.56,0,0,1-2.18-1.41,3,3,0,0,1-.72-2,3,3,0,0,1,.4-1.59,3.24,3.24,0,0,1,1.06-1.09,4.73,4.73,0,0,1,1.56-.63,8.15,8.15,0,0,1,1.88-.2,11.13,11.13,0,0,1,1.72.11,7.25,7.25,0,0,1,1.39.34v2.47a5.23,5.23,0,0,0-1.45-.62,7.54,7.54,0,0,0-.77-.16,6.57,6.57,0,0,0-.74,0,3.88,3.88,0,0,0-.87.09,2.53,2.53,0,0,0-.66.24,1.16,1.16,0,0,0-.41.38.84.84,0,0,0-.15.49.88.88,0,0,0,.16.53,1.85,1.85,0,0,0,.47.45,5,5,0,0,0,.74.41c.29.14.62.28,1,.42a12.24,12.24,0,0,1,1.35.63,5,5,0,0,1,1,.75,3.12,3.12,0,0,1,.65,1,3.72,3.72,0,0,1-.17,2.92,3.1,3.1,0,0,1-1.07,1.09,4.81,4.81,0,0,1-1.58.6,9.65,9.65,0,0,1-1.9.18,11.14,11.14,0,0,1-2-.17A6,6,0,0,1,126.19,101.1Z" transform="translate(-44.48 -80.67)"/><path class="b8ab8769-8767-4af3-9e63-08bc6e678130" d="M143.67,101.55H136.2V89.71h7.19v2.18H139v2.63h4.07v2.16H139v2.71h4.66Z" transform="translate(-44.48 -80.67)"/><path class="b8ab8769-8767-4af3-9e63-08bc6e678130" d="M149.67,101.55V89.71h6.07v1h-4.92v4.34h4.56v1h-4.56v4.5H156v1Z" transform="translate(-44.48 -80.67)"/><path class="b8ab8769-8767-4af3-9e63-08bc6e678130" d="M164.94,101.55,162.07,97l-.2-.34c-.07-.13-.12-.25-.17-.36h0l-.18.34a3.9,3.9,0,0,1-.22.36l-2.93,4.52h-1.42l4.06-6-3.77-5.88h1.41L161.27,94c.08.13.16.26.23.4s.15.27.23.41h0c.08-.16.16-.31.24-.44a4.23,4.23,0,0,1,.23-.38l2.71-4.3h1.34l-3.82,5.87,3.89,6Z" transform="translate(-44.48 -80.67)"/><path class="b8ab8769-8767-4af3-9e63-08bc6e678130" d="M169,97v4.6h-1.16V89.71h3.22a5.81,5.81,0,0,1,1.74.24,3.43,3.43,0,0,1,1.27.67,2.72,2.72,0,0,1,.79,1.07,3.68,3.68,0,0,1,.27,1.45,3.78,3.78,0,0,1-.3,1.52,3.5,3.5,0,0,1-.87,1.21,4.1,4.1,0,0,1-1.39.79,5.61,5.61,0,0,1-1.85.29Zm0-6.23v5.22h1.65a3.7,3.7,0,0,0,2.44-.71,2.48,2.48,0,0,0,.84-2c0-1.66-1-2.5-3.08-2.5Z" transform="translate(-44.48 -80.67)"/><path class="b8ab8769-8767-4af3-9e63-08bc6e678130" d="M177.16,101.55V89.71h1.15v10.84h5v1Z" transform="translate(-44.48 -80.67)"/><path class="b8ab8769-8767-4af3-9e63-08bc6e678130" d="M189.35,101.76a6,6,0,0,1-2.42-.47A5.32,5.32,0,0,1,185.1,100a5.69,5.69,0,0,1-1.16-1.91,6.69,6.69,0,0,1-.4-2.34,7.6,7.6,0,0,1,.4-2.54,5.61,5.61,0,0,1,1.18-2A5.38,5.38,0,0,1,187,90a6.55,6.55,0,0,1,2.55-.46,6,6,0,0,1,2.37.45,5.18,5.18,0,0,1,1.79,1.24,5.62,5.62,0,0,1,1.14,1.89,7,7,0,0,1,.39,2.37,7.65,7.65,0,0,1-.39,2.49,5.54,5.54,0,0,1-1.13,2,5.33,5.33,0,0,1-1.86,1.32A6.24,6.24,0,0,1,189.35,101.76Zm.1-11.24a4.7,4.7,0,0,0-2,.4A4.47,4.47,0,0,0,186,92a4.85,4.85,0,0,0-.91,1.64,6.43,6.43,0,0,0-.31,2,6.21,6.21,0,0,0,.27,1.93,4.82,4.82,0,0,0,.85,1.62,4.14,4.14,0,0,0,1.44,1.13,4.63,4.63,0,0,0,2,.42,5.21,5.21,0,0,0,2-.38,4.11,4.11,0,0,0,1.47-1.07,4.39,4.39,0,0,0,.89-1.62,6.75,6.75,0,0,0,.3-2.06,7.44,7.44,0,0,0-.26-2A4.57,4.57,0,0,0,193,92a4.08,4.08,0,0,0-1.43-1.11A4.89,4.89,0,0,0,189.45,90.52Z" transform="translate(-44.48 -80.67)"/><path class="b8ab8769-8767-4af3-9e63-08bc6e678130" d="M204,101.55l-1.88-3.39a6.88,6.88,0,0,0-.54-.84,2.3,2.3,0,0,0-.54-.54,1.71,1.71,0,0,0-.59-.29,2.6,2.6,0,0,0-.71-.09h-1.37v5.15h-1.16V89.71h3.59a4.76,4.76,0,0,1,1.36.2,3.58,3.58,0,0,1,1.17.59,2.82,2.82,0,0,1,1.13,2.33,3.32,3.32,0,0,1-.2,1.16,3.2,3.2,0,0,1-.57.94,3.47,3.47,0,0,1-.9.69,4.57,4.57,0,0,1-1.18.43v0a2.25,2.25,0,0,1,.46.25,3.55,3.55,0,0,1,.4.38,4.69,4.69,0,0,1,.39.52c.13.19.26.41.4.66l2.09,3.66Zm-5.63-10.83V95.4h2.06a3.8,3.8,0,0,0,1.15-.17,2.49,2.49,0,0,0,.89-.5,2.07,2.07,0,0,0,.57-.77,2.43,2.43,0,0,0,.21-1,2,2,0,0,0-.7-1.62,3.08,3.08,0,0,0-2-.59Z" transform="translate(-44.48 -80.67)"/><path class="b8ab8769-8767-4af3-9e63-08bc6e678130" d="M207,101.55V89.71H213v1H208.1v4.34h4.56v1H208.1v4.5h5.2v1Z" transform="translate(-44.48 -80.67)"/><path class="b8ab8769-8767-4af3-9e63-08bc6e678130" d="M222.15,101.55l-1.88-3.39a5.11,5.11,0,0,0-.54-.84,2.48,2.48,0,0,0-.53-.54,1.85,1.85,0,0,0-.6-.29,2.6,2.6,0,0,0-.71-.09h-1.37v5.15h-1.16V89.71H219a4.76,4.76,0,0,1,1.36.2,3.58,3.58,0,0,1,1.17.59,2.82,2.82,0,0,1,1.13,2.33,3.32,3.32,0,0,1-.2,1.16,2.82,2.82,0,0,1-.57.94,3.42,3.42,0,0,1-.89.69,4.79,4.79,0,0,1-1.19.43v0a2.25,2.25,0,0,1,.46.25,3.55,3.55,0,0,1,.4.38,4.69,4.69,0,0,1,.39.52c.13.19.26.41.4.66l2.09,3.66Zm-5.63-10.83V95.4h2.07a3.74,3.74,0,0,0,1.14-.17,2.49,2.49,0,0,0,.89-.5,2.21,2.21,0,0,0,.58-.77,2.59,2.59,0,0,0,.2-1,2,2,0,0,0-.7-1.62,3.06,3.06,0,0,0-2-.59Z" transform="translate(-44.48 -80.67)"/></svg>